<svg width="18" height="12" viewBox="0 0 18 12" fill="none" xmlns="http://www.w3.org/2000/svg">
<path d="M16.5415 1.73957H11.4374V0.28125H16.5415V1.73957ZM17.8 9.03116C17.4777 9.97688 16.3206 11.2186 14.0806 11.2186C11.8391 11.2186 10.0235 9.95792 10.0235 7.08066C10.0235 4.22965 11.7188 2.76404 14.0091 2.76404C16.2564 2.76404 17.6287 4.0634 17.9284 5.99129C17.9852 6.36025 18.0078 6.85753 17.9976 7.55169H12.1447C12.2395 9.89302 14.6843 9.96667 15.49 9.03116H17.8ZM12.1957 6.11452H15.816C15.7394 4.98651 14.9877 4.49652 14.0099 4.49652C12.9409 4.49652 12.3496 5.05651 12.1957 6.11452ZM5.21474 11.2099H0.5V0.296562H5.56984C9.56271 0.355624 9.63855 4.2661 7.55315 5.33213C10.0768 6.25087 10.1614 11.2099 5.21474 11.2099ZM2.68748 4.6562H5.30078C7.12951 4.6562 7.41972 2.46873 5.07328 2.46873H2.68748V4.6562ZM5.16005 6.84368H2.68748V9.04282H5.1236C7.35118 9.04282 7.21482 6.84368 5.16005 6.84368Z" fill="#FFFFFE"/>
</svg>
