<svg width="18" height="18" viewBox="0 0 18 18" fill="none" xmlns="http://www.w3.org/2000/svg">
<path fill-rule="evenodd" clip-rule="evenodd" d="M9.25 0C4.41927 0 0.5 3.91927 0.5 8.75C0.5 13.5807 4.41927 17.5 9.25 17.5C14.0712 17.5 18 13.5807 18 8.75C18 3.91927 14.0712 0 9.25 0ZM15.0294 4.03302C16.1067 5.34504 16.7029 6.98607 16.7189 8.68365C16.4724 8.63625 14.0049 8.13313 11.5184 8.44667C11.4608 8.32271 11.4134 8.19 11.3566 8.05729C11.2019 7.69227 11.0376 7.33145 10.8636 6.97521C13.6155 5.85521 14.8682 4.24229 15.0294 4.03302ZM9.25 1.29135C11.148 1.29135 12.8849 2.00229 14.204 3.16969C14.0713 3.35927 12.9418 4.86865 10.2847 5.86469C9.05969 3.61594 7.70344 1.77406 7.49417 1.48969C8.06971 1.35529 8.65897 1.28849 9.25 1.29062V1.29135ZM6.07083 1.99281C6.2699 2.25896 7.59844 4.10958 8.84167 6.31094C5.34896 7.24135 2.26458 7.2224 1.93281 7.2224C2.41698 4.90656 3.98323 2.9801 6.07083 1.99281ZM1.77167 8.75948V8.53198C2.09469 8.54146 5.71938 8.58885 9.44979 7.46885C9.66781 7.88667 9.86688 8.31323 10.0565 8.74052C9.96167 8.76896 9.8574 8.7974 9.7626 8.82583C5.90969 10.0691 3.85927 13.4662 3.68865 13.7514C2.45447 12.3816 1.77152 10.6032 1.77167 8.75948ZM9.25 16.2283C7.58897 16.231 5.97505 15.6764 4.66646 14.6533C4.79917 14.3777 6.31729 11.4545 10.5311 9.98375C10.5501 9.97427 10.5603 9.97427 10.5785 9.96479C11.6322 12.6882 12.0588 14.9756 12.1732 15.6304C11.2713 16.0198 10.2847 16.2283 9.25 16.2283ZM13.4165 14.9472C13.3406 14.4915 12.9418 12.3091 11.964 9.62281C14.3082 9.25313 16.3579 9.86052 16.6146 9.94583C16.2916 12.024 15.0957 13.8177 13.4165 14.9472Z" fill="#FFFFFE"/>
</svg>
