<svg width="18" height="18" viewBox="0 0 18 18" fill="none" xmlns="http://www.w3.org/2000/svg">
<path fill-rule="evenodd" clip-rule="evenodd" d="M5.14261 0.0525C6.07568 0.00954544 6.37318 0 8.75 0C11.1268 0 11.4243 0.0103409 12.3566 0.0525C13.2889 0.0946591 13.9252 0.243409 14.482 0.458977C15.0651 0.679318 15.5941 1.02375 16.0316 1.4692C16.477 1.90591 16.8207 2.43409 17.0402 3.01795C17.2566 3.57477 17.4045 4.21114 17.4475 5.14182C17.4905 6.07648 17.5 6.37398 17.5 8.75C17.5 11.1268 17.4897 11.4243 17.4475 12.3574C17.4053 13.2881 17.2566 13.9244 17.0402 14.4812C16.8207 15.0652 16.4765 15.5942 16.0316 16.0316C15.5941 16.477 15.0651 16.8207 14.482 17.0402C13.9252 17.2566 13.2889 17.4045 12.3582 17.4475C11.4243 17.4905 11.1268 17.5 8.75 17.5C6.37318 17.5 6.07568 17.4897 5.14261 17.4475C4.21193 17.4053 3.57557 17.2566 3.01875 17.0402C2.43482 16.8207 1.90577 16.4765 1.46841 16.0316C1.02326 15.5946 0.678773 15.0658 0.458977 14.482C0.243409 13.9252 0.0954545 13.2889 0.0525 12.3582C0.00954544 11.4235 0 11.126 0 8.75C0 6.37318 0.0103409 6.07568 0.0525 5.14341C0.0946591 4.21114 0.243409 3.57477 0.458977 3.01795C0.679098 2.43416 1.02384 1.90536 1.4692 1.46841C1.90594 1.02335 2.43447 0.678875 3.01795 0.458977C3.57477 0.243409 4.21114 0.0954545 5.14182 0.0525H5.14261ZM12.2858 1.6275C11.3631 1.58534 11.0863 1.57659 8.75 1.57659C6.41375 1.57659 6.13693 1.58534 5.2142 1.6275C4.36068 1.66648 3.89773 1.80886 3.58909 1.92898C3.18102 2.08807 2.88909 2.27659 2.58284 2.58284C2.29254 2.86527 2.06912 3.20909 1.92898 3.58909C1.80886 3.89773 1.66648 4.36068 1.6275 5.2142C1.58534 6.13693 1.57659 6.41375 1.57659 8.75C1.57659 11.0863 1.58534 11.3631 1.6275 12.2858C1.66648 13.1393 1.80886 13.6023 1.92898 13.9109C2.06898 14.2903 2.2925 14.6348 2.58284 14.9172C2.86523 15.2075 3.20966 15.431 3.58909 15.571C3.89773 15.6911 4.36068 15.8335 5.2142 15.8725C6.13693 15.9147 6.41295 15.9234 8.75 15.9234C11.087 15.9234 11.3631 15.9147 12.2858 15.8725C13.1393 15.8335 13.6023 15.6911 13.9109 15.571C14.319 15.4119 14.6109 15.2234 14.9172 14.9172C15.2075 14.6348 15.431 14.2903 15.571 13.9109C15.6911 13.6023 15.8335 13.1393 15.8725 12.2858C15.9147 11.3631 15.9234 11.0863 15.9234 8.75C15.9234 6.41375 15.9147 6.13693 15.8725 5.2142C15.8335 4.36068 15.6911 3.89773 15.571 3.58909C15.4119 3.18102 15.2234 2.88909 14.9172 2.58284C14.6347 2.29256 14.2909 2.06914 13.9109 1.92898C13.6023 1.80886 13.1393 1.66648 12.2858 1.6275ZM7.63239 11.4474C8.25655 11.7072 8.95155 11.7423 9.59869 11.5466C10.2458 11.3509 10.805 10.9366 11.1806 10.3745C11.5562 9.81238 11.725 9.13728 11.6582 8.46452C11.5914 7.79175 11.2931 7.16305 10.8142 6.6858C10.5089 6.38072 10.1398 6.14712 9.73345 6.00182C9.32707 5.85652 8.89352 5.80313 8.46403 5.84549C8.03454 5.88785 7.61978 6.02491 7.24962 6.24681C6.87945 6.4687 6.56309 6.76991 6.32331 7.12875C6.08353 7.48758 5.92629 7.89512 5.86291 8.32201C5.79953 8.74891 5.8316 9.18455 5.95679 9.59757C6.08199 10.0106 6.2972 10.3907 6.58694 10.7106C6.87667 11.0304 7.23372 11.2821 7.63239 11.4474ZM5.56977 5.56977C5.98741 5.15214 6.48321 4.82085 7.02887 4.59483C7.57454 4.36881 8.15938 4.25248 8.75 4.25248C9.34062 4.25248 9.92546 4.36881 10.4711 4.59483C11.0168 4.82085 11.5126 5.15214 11.9302 5.56977C12.3479 5.98741 12.6791 6.48321 12.9052 7.02887C13.1312 7.57454 13.2475 8.15938 13.2475 8.75C13.2475 9.34062 13.1312 9.92546 12.9052 10.4711C12.6791 11.0168 12.3479 11.5126 11.9302 11.9302C11.0868 12.7737 9.94282 13.2475 8.75 13.2475C7.55718 13.2475 6.41322 12.7737 5.56977 11.9302C4.72632 11.0868 4.25248 9.94282 4.25248 8.75C4.25248 7.55718 4.72632 6.41322 5.56977 5.56977ZM14.245 4.92227C14.3485 4.82465 14.4313 4.70725 14.4887 4.57702C14.546 4.4468 14.5766 4.30641 14.5786 4.16415C14.5807 4.02189 14.5542 3.88066 14.5007 3.74883C14.4472 3.61699 14.3678 3.49722 14.2672 3.39662C14.1666 3.29602 14.0469 3.21663 13.915 3.16314C13.7832 3.10965 13.642 3.08316 13.4997 3.08524C13.3575 3.08731 13.2171 3.11791 13.0868 3.17521C12.9566 3.23252 12.8392 3.31537 12.7416 3.41886C12.5517 3.62014 12.4478 3.88748 12.4518 4.16415C12.4558 4.44081 12.5675 4.70502 12.7632 4.90067C12.9588 5.09632 13.223 5.20802 13.4997 5.21206C13.7764 5.21609 14.0437 5.11214 14.245 4.92227Z" fill="#FFFFFE"/>
</svg>
